# xmcd
#
# Track frame offsets:
#	150
#	1805
#	11302
#	22715
#	34757
#	45706
#	57433
#	69447
#	80657
#	92521
#	104030
#	119023
#	132140
#	145926
#	159085
#	169480
#	181607
#	193474
#	206054
#	218389
#	231271
#	240497
#	254263
#	264441
#	277192
#
# Disc length: 3847 seconds
#
# Revision: 1
# Processed by: cddbd v1.5.2PL0 Copyright (c) Steve Scherf et al.
# Submitted via: audiograbber 1.83.01
#
DISCID=580f0519
DTITLE=Various Artist - TL Sound Vol 6
DYEAR=1900
DGENRE=
TTITLE0=Terry Lee - Intro
TTITLE1=Gigolos - Black and Blue
TTITLE2=Del Cades - (It Takes) Two To Fall In Love
TTITLE3=Delmonicos - You Can Call
TTITLE4=Little Tommy and The Elgins - Never Love Again
TTITLE5=Serenaders - I'll Cry Tomorrow
TTITLE6=Centuries - In This Whole World
TTITLE7=Petites - Beating Of My Heart
TTITLE8=Terrans - Moonrise
TTITLE9=Trenells - Come On And Tell Me
TTITLE10=Racket Squad - The Loser
TTITLE11=Brothers Of Soul - I Guess That Dont Make Me A Loser
TTITLE12=Brothers Of Soul - Wait For Me
TTITLE13=Johnny Bartell And The Soul Masters - I Waited Too Long
TTITLE14=Visitors - Until You Came Along
TTITLE15=Impacts - Darling Now You're Mine
TTITLE16=Barbara Mason and The Larks - Dedicated To You
TTITLE17=Phill Terrell and Group - Baby Doll
TTITLE18=Universals - Dear Ruth
TTITLE19=Lovettes - Lonely Girl
TTITLE20=Four Dots - Pleading For Your Love
TTITLE21=Jives - Seven Steps To An Angel
TTITLE22=United Four - Go On
TTITLE23=Alaine Williams - So This Is Goodbye
TTITLE24=Angels - Thank You and Goodnight
EXTD=
EXTT0=
EXTT1=
EXTT2=
EXTT3=
EXTT4=
EXTT5=
EXTT6=
EXTT7=
EXTT8=
EXTT9=
EXTT10=
EXTT11=
EXTT12=
EXTT13=
EXTT14=
EXTT15=
EXTT16=
EXTT17=
EXTT18=
EXTT19=
EXTT20=
EXTT21=
EXTT22=
EXTT23=
EXTT24=
PLAYORDER=
